<?xml version="1.0" encoding="utf-8"?>
<svg xmlns="http://www.w3.org/2000/svg" width="512" height="512" viewBox="100 360 300 300" role="img" aria-label="XBOARD icon">
  <path fill="#ffffff" transform="scale(1.05469 1.05469)" d="M130.293 395.177C138.389 394.972 156.648 393.75 163.349 398.134C169.739 402.313 172.807 411.374 181.688 414.12C191.681 417.21 202.303 413.38 210.931 420.188C213.807 422.412 217.207 426.925 217.951 430.568C220.922 445.127 215.696 451.979 229.452 462.518C244.631 450.647 237.031 444.69 241.571 429.743C247.533 410.116 267.254 419.742 280.684 412.455C290.03 407.384 290.758 400.938 296.932 397.251C306.954 393.231 322.375 395.635 332.65 396.144C342.113 396.613 340.349 429.511 338.155 434.495C330.647 451.551 289.98 478.269 284.717 493.349C286.301 503.462 286.869 505.51 284.289 515.606C288.94 522.539 295.52 528.375 301.476 534.228C309.878 542.356 318.162 550.607 326.325 558.976C331.752 564.637 338.945 570.744 339.026 579.045C339.113 586.667 339.145 594.346 339.019 601.966C338.871 610.869 335.544 612.443 327.574 612.715C321.322 612.921 306.356 613.202 300.516 612.118C294.343 610.973 286.327 597.517 278.814 594.545C268.215 590.206 256.095 596.455 247.142 586.678C232.272 570.44 248.639 562.122 229.748 545.156C212.635 559.53 223.943 565.471 216.296 581.414C208.266 598.157 190.082 588.836 177.599 595.805C172.018 598.92 165.314 611.466 158.841 612.088C149.212 612.863 139.187 612.896 129.533 612.625C125.464 612.51 120.605 608.548 120.427 604.405C120.049 595.608 118.943 581.189 121.336 572.988C122.379 569.412 131.494 560.549 134.381 557.662L158.803 533.429C163.985 528.305 171.57 521.551 175.395 515.573C173.419 505.65 173.779 501.915 174.879 491.913C163.591 477.241 147.298 464.493 134.701 450.829C131.119 446.461 120.818 438.469 120.377 432.614C119.683 423.418 119.995 411.972 120.383 402.623C120.609 397.166 125.599 395.612 130.293 395.177ZM185.383 482.369C195.227 480.577 201.705 479.388 210.41 485.034C222.809 493.075 217.56 503.491 219.626 511.856C222.105 521.897 240.784 536.412 248.206 543.559C258.929 550.706 272.21 541.68 281.219 553.751C288.463 563.457 284.865 572.722 287.21 583.453C288.53 589.491 296.813 598.574 303.307 598.498C309.278 593.224 320.153 582.641 324.579 576.269C321.49 570.055 282.065 530.708 275.668 526.644L275.085 526.266C274.966 526.193 274.848 526.12 274.729 526.047C265.633 527.734 257.327 529.22 249.205 523.506C238.168 515.741 239.882 505.207 239.572 494.086C233.417 485.131 220.935 472.119 212.156 465.62C203.335 459.091 184.055 464.452 176.743 453.525C168.41 441.046 177.975 412.774 156.158 409.848C150.861 413.931 138.253 426.35 134.518 431.924C141.367 441.319 151.986 451.157 160.196 459.396C168.1 467.327 176.146 476.097 185.383 482.369ZM219.593 536.137C208.204 521.047 201.081 529.801 184.87 525.572C177.724 530.319 140.452 567.882 133.978 576.113C137.507 580.251 152.229 597.367 158.147 597.963C160.212 598.171 164.093 594.669 165.739 593.069C179.809 576.155 166.286 563.157 181.051 551.326C184.191 548.797 187.997 547.234 192.008 546.827C205.486 545.429 208.378 548.157 219.593 536.137ZM300.287 409.929C279.216 421.455 290.774 434.205 282.916 451.239C276.28 465.623 262.062 459.442 250.495 463.838C244.667 466.047 236.277 470.177 243.59 476.591C251.17 484.022 257.773 480.015 266.125 481.096C268.656 481.5 271.181 481.933 273.702 482.397C283.608 476.3 294.514 463.689 303.047 455.369C309.454 449.122 319.593 439.57 324.854 432.613C321.666 427.118 306.4 409.741 300.287 409.929Z"/>
</svg>
