<?xml version="1.0" encoding="utf-8" ?><svg xmlns="http://www.w3.org/2000/svg" xmlns:xlink="http://www.w3.org/1999/xlink" width="1080" height="1080" viewBox="0 0 1080 1080"><path fill="white" transform="scale(1.05469 1.05469)" d="M130.293 395.177C138.389 394.972 156.648 393.75 163.349 398.134C169.739 402.313 172.807 411.374 181.688 414.12C191.681 417.21 202.303 413.38 210.931 420.188C213.807 422.412 217.207 426.925 217.951 430.568C220.922 445.127 215.696 451.979 229.452 462.518C244.631 450.647 237.031 444.69 241.571 429.743C247.533 410.116 267.254 419.742 280.684 412.455C290.03 407.384 290.758 400.938 296.932 397.251C306.954 393.231 322.375 395.635 332.65 396.144C342.113 396.613 340.349 429.511 338.155 434.495C330.647 451.551 289.98 478.269 284.717 493.349C286.301 503.462 286.869 505.51 284.289 515.606C288.94 522.539 295.52 528.375 301.476 534.228C309.878 542.356 318.162 550.607 326.325 558.976C331.752 564.637 338.945 570.744 339.026 579.045C339.113 586.667 339.145 594.346 339.019 601.966C338.871 610.869 335.544 612.443 327.574 612.715C321.322 612.921 306.356 613.202 300.516 612.118C294.343 610.973 286.327 597.517 278.814 594.545C268.215 590.206 256.095 596.455 247.142 586.678C232.272 570.44 248.639 562.122 229.748 545.156C212.635 559.53 223.943 565.471 216.296 581.414C208.266 598.157 190.082 588.836 177.599 595.805C172.018 598.92 165.314 611.466 158.841 612.088C149.212 612.863 139.187 612.896 129.533 612.625C125.464 612.51 120.605 608.548 120.427 604.405C120.049 595.608 118.943 581.189 121.336 572.988C122.379 569.412 131.494 560.549 134.381 557.662L158.803 533.429C163.985 528.305 171.57 521.551 175.395 515.573C173.419 505.65 173.779 501.915 174.879 491.913C163.591 477.241 147.298 464.493 134.701 450.829C131.119 446.461 120.818 438.469 120.377 432.614C119.683 423.418 119.995 411.972 120.383 402.623C120.609 397.166 125.599 395.612 130.293 395.177ZM185.383 482.369C195.227 480.577 201.705 479.388 210.41 485.034C222.809 493.075 217.56 503.491 219.626 511.856C222.105 521.897 240.784 536.412 248.206 543.559C258.929 550.706 272.21 541.68 281.219 553.751C288.463 563.457 284.865 572.722 287.21 583.453C288.53 589.491 296.813 598.574 303.307 598.498C309.278 593.224 320.153 582.641 324.579 576.269C321.49 570.055 282.065 530.708 275.668 526.644L275.085 526.266C274.966 526.193 274.848 526.12 274.729 526.047C265.633 527.734 257.327 529.22 249.205 523.506C238.168 515.741 239.882 505.207 239.572 494.086C233.417 485.131 220.935 472.119 212.156 465.62C203.335 459.091 184.055 464.452 176.743 453.525C168.41 441.046 177.975 412.774 156.158 409.848C150.861 413.931 138.253 426.35 134.518 431.924C141.367 441.319 151.986 451.157 160.196 459.396C168.1 467.327 176.146 476.097 185.383 482.369ZM219.593 536.137C208.204 521.047 201.081 529.801 184.87 525.572C177.724 530.319 140.452 567.882 133.978 576.113C137.507 580.251 152.229 597.367 158.147 597.963C160.212 598.171 164.093 594.669 165.739 593.069C179.809 576.155 166.286 563.157 181.051 551.326C184.191 548.797 187.997 547.234 192.008 546.827C205.486 545.429 208.378 548.157 219.593 536.137ZM300.287 409.929C279.216 421.455 290.774 434.205 282.916 451.239C276.28 465.623 262.062 459.442 250.495 463.838C244.667 466.047 236.277 470.177 243.59 476.591C251.17 484.022 257.773 480.015 266.125 481.096C268.656 481.5 271.181 481.933 273.702 482.397C283.608 476.3 294.514 463.689 303.047 455.369C309.454 449.122 319.593 439.57 324.854 432.613C321.666 427.118 306.4 409.741 300.287 409.929Z"/><path fill="white" transform="scale(1.05469 1.05469)" d="M490.51 462.497C501.44 462.716 512.372 462.77 523.303 462.658C536.987 462.476 562.46 458.729 567.227 475.464C569.955 485.039 567.283 491.537 562.892 499.669L564.015 500.874C566.559 504.695 568.017 509.135 568.235 513.721C568.733 522.972 562.562 534.02 553.053 534.75C532.684 536.314 511.225 534.516 490.71 535.475C490.104 518.267 491.23 500.976 490.942 483.744C490.831 477.083 491.276 469.006 490.51 462.497ZM502.99 493.303L508.975 493.338C515.659 493.388 522.521 493.525 529.182 493.319L532.499 493.394L540.001 493.389C540.841 493.41 541.681 493.427 542.521 493.438C555.507 493.6 562.18 484.518 551.751 474.965C545.837 473.451 536.537 473.931 530.233 473.944L502.993 474.087L502.99 493.303ZM503.075 523.807L532.423 523.793C537.295 523.792 544.442 524.23 549.037 523.35C557.818 521.666 558.302 510.952 551.708 505.664C547.747 504.711 539.723 504.903 535.378 504.861L503.039 504.845C503.263 511.49 502.958 517.417 503.075 523.807Z"/><path fill="white" transform="scale(1.05469 1.05469)" d="M508.975 493.338C515.659 493.388 522.521 493.525 529.182 493.319C529.098 499.001 528.419 499.224 525.288 504.121L509.516 504.101C509.482 500.113 509.481 497.273 508.975 493.338Z"/><path fill="white" transform="scale(1.05469 1.05469)" d="M514.113 495.673C517.381 495.587 520.362 495.063 523.054 496.735C524.097 498.538 523.766 498.025 523.772 500.394C520.549 500.589 517.37 501.281 514.879 499.353C513.954 497.735 514.111 497.52 514.113 495.673Z"/><path fill="white" transform="scale(1.05469 1.05469)" d="M532.499 493.394L540.001 493.389C539.234 495.122 538.892 495.559 539.003 497.477C541.606 499.498 544.496 495.717 550.762 502.133C551.129 502.509 551.494 502.887 551.856 503.268L552.881 504.234L551.708 505.664C547.747 504.711 539.723 504.903 535.378 504.861C537.37 504.609 539.365 504.385 541.363 504.187L533.121 504.135C532.553 499.971 532.512 497.632 532.499 493.394Z"/><path fill="white" transform="scale(1.05469 1.05469)" d="M551.856 503.268C554.814 496.457 556.614 497.777 562.892 499.669L564.015 500.874C563.306 504.409 563.754 514.421 561.46 516.094C559.752 516.167 559.246 516.339 557.782 515.446C555.191 511.272 562.98 501.714 552.881 504.234L551.856 503.268Z"/><path fill="white" transform="scale(1.05469 1.05469)" d="M575.711 497.605C576.591 487.73 578.984 476.818 587.14 470.921C614.131 451.408 657.018 465.2 652.76 503.007C650.02 527.342 630.86 537.569 608.45 535.284C595.982 533.825 585.728 527.881 579.836 516.56L578.024 512.506L576.665 507.486C576.15 503.888 575.706 501.246 575.711 497.605ZM620.377 523.567C649.124 519.476 649.597 470.726 609.288 474.093C603.001 475.232 595.484 478.264 592.482 484.002C580.224 507.435 595.506 527.275 620.377 523.567Z"/><path fill="white" transform="scale(1.05469 1.05469)" d="M575.711 497.605C579.209 498.362 583.482 498.192 585.015 501.651C588.151 508.73 587.726 514.5 579.836 516.56L578.024 512.506L576.665 507.486C576.15 503.888 575.706 501.246 575.711 497.605Z"/><path fill="white" transform="scale(1.05469 1.05469)" d="M576.665 507.486C578.498 508.019 582.417 508.779 583.168 510.078C581.852 511.399 579.836 511.86 578.024 512.506L576.665 507.486Z"/><path fill="white" transform="scale(1.05469 1.05469)" d="M747.886 462.462C764.234 464.198 804.71 459.334 816.436 465.256C820.523 467.32 822.862 470.968 824.206 475.249C827.204 484.806 826.895 497.084 822.168 506.045C819.429 511.236 814.135 513.723 808.779 515.369C812.885 521.084 821.514 530.163 826.473 535.298C821.059 535.334 814.283 535.645 809.035 535.085C803.014 528.762 797.045 522.39 791.128 515.97C786.37 515.741 779.515 515.955 774.625 515.981L760.422 515.998C760.274 522.407 760.402 529.019 760.45 535.449C756.364 535.427 752.278 535.449 748.193 535.514C748.112 528.665 746.343 514.711 750.977 509.133C753.004 506.693 755.827 505.229 758.886 504.521C770.212 501.901 788.471 505.344 801.027 504.431C804.961 504.144 809.033 503.206 811.621 499.989C814.706 496.155 814.834 489.555 814.364 484.824C814.068 481.846 813.135 477.356 810.414 475.561C806.944 473.272 755.217 473.783 747.582 474.543C747.901 469.992 748.023 467.003 747.886 462.462Z"/><path fill="white" transform="scale(1.05469 1.05469)" d="M468.682 462.518C474.084 462.452 479.253 462.898 484.686 462.348C477.295 469.853 461.57 489.881 454.518 498.475C463.102 510.008 474.77 522.93 483.952 534.548L483.751 535.03L481.625 535.15C477.151 535.265 473.461 535.386 468.974 535.053C461.796 526.48 452.321 515.97 445.745 507.251C439.128 515.211 428.833 528.266 421.921 535.281C416.982 535.213 411.693 535.369 406.726 535.425C415.463 524.289 427.575 508.94 437.388 498.754C427.136 486.98 417.229 474.91 407.679 462.56C412.054 462.398 419.092 462.44 423.334 462.839C427.59 466.665 441.389 484.205 445.721 489.493C450.804 482.553 462.668 469.519 468.682 462.518Z"/><path fill="white" transform="scale(1.05469 1.05469)" d="M831.769 462.5C852.924 464.734 882.531 456.433 899.188 472.349C913.176 485.716 912.845 511.142 899.15 524.755C888.305 535.535 875.628 535.28 861.269 535.09L842.875 535.006C839.185 534.984 836.172 534.987 832.502 535.259L832.519 523.556C849.329 523.207 877.07 528.109 890.391 516.74C899.671 509.167 899.382 489.685 890.84 481.767C878.453 470.284 848.187 474.008 831.488 474.065C831.824 469.589 831.983 466.947 831.769 462.5Z"/><path fill="white" transform="scale(1.05469 1.05469)" d="M667.974 497.529C674.865 479.834 679.487 459.172 703.752 462.136C714.604 463.461 720.051 471.745 724.037 480.949C731.278 498.89 737.396 518.035 746.024 535.433C741.991 535.407 735.331 535.127 731.515 535.441C725.942 523.326 721.741 510.161 716.598 497.831C714.117 491.779 712.371 485.989 709.068 480.301C704.265 471.762 692.944 471.571 688.083 480.241C685.247 485.298 683.201 490.899 681.255 496.38C679.754 500.607 677.432 505.618 676.242 509.868L673.767 516.447C669.323 516.424 664.982 517.598 660.641 516.495L662.93 510.776C663.807 508.966 665.286 504.572 666.031 502.541C666.7 500.916 667.338 499.177 667.974 497.529Z"/><path fill="white" transform="scale(1.05469 1.05469)" d="M666.031 502.541C666.7 500.916 667.338 499.177 667.974 497.529C670.373 498.569 671.05 498.7 673.639 499.188C674.046 502.013 674.527 507.886 676.242 509.868L673.767 516.447C669.323 516.424 664.982 517.598 660.641 516.495L662.93 510.776C663.807 508.966 665.286 504.572 666.031 502.541Z"/><path fill="white" transform="scale(1.05469 1.05469)" d="M666.031 502.541C672.73 506.11 670.307 515.584 662.93 510.776C663.807 508.966 665.286 504.572 666.031 502.541Z"/><path fill="white" transform="scale(1.05469 1.05469)" d="M660.641 516.495C664.982 517.598 669.323 516.424 673.767 516.447C671.533 522.829 669.238 529.189 666.88 535.527C662.774 535.201 657.526 535.344 653.329 535.345C654.755 530.465 658.623 521.53 660.641 516.495Z"/></svg>